<?xml version="1.0" encoding="utf-8"?><!DOCTYPE svg PUBLIC "-//W3C//DTD SVG 1.1//EN" "http://www.w3.org/Graphics/SVG/1.1/DTD/svg11.dtd"><svg version="1.1" xmlns="http://www.w3.org/2000/svg" xmlns:xlink="http://www.w3.org/1999/xlink" x="0px" y="0px" viewBox="0 0 80.21 80.209" enable-background="new 0 0 80.21 80.209" xml:space="preserve"><path fill="#010101" d="M49.224,19.837c2.669,0.001,4.835-2.166,4.834-4.835c0.001-2.675-2.166-4.839-4.834-4.833
	c-2.675-0.006-4.84,2.158-4.834,4.833C44.384,17.672,46.549,19.838,49.224,19.837L49.224,19.837z"></path><path fill="#010101" d="M42.997,28.737l0.03,36.938c0.011,3.688,5.443,3.654,5.429-0.085l0.03-21.496h1.051v21.468
	c-0.011,3.758,5.487,3.851,5.49,0.114v-37.11h0.967v13.252c-0.013,3.184,4.302,3.184,4.292,0.056V27.401
	c0.009-3.907-2.889-6.201-5.942-6.199h-8.618c-2.041-0.001-3.521,0.807-4.778,2.588l-4.351,6.341h-7.536
	c-3.046,0-2.876,4.305-0.055,4.294h8.701c0.677,0.011,1.506-0.242,1.991-0.968L42.997,28.737L42.997,28.737z"></path><polygon fill="#010101" points="28.808,51.371 28.808,47.848 25.282,47.848 25.282,51.371 "></polygon><polygon fill="#010101" points="30.74,43.522 28.153,40.964 25.565,43.522 28.153,46.11 "></polygon><polygon fill="#010101" points="28.324,38.661 25.736,36.102 23.177,38.661 25.736,41.249 "></polygon><polygon fill="#010101" points="33.67,68.405 38.276,43.978 34.808,43.978 30.797,64.993 24.826,64.993 20.875,43.978 
	17.433,43.978 21.926,68.405 "></polygon><path fill="#010101" d="M40.105,0C17.991,0,0,17.991,0,40.105c0,22.114,17.991,40.104,40.105,40.104S80.21,62.219,80.21,40.105
	C80.21,17.991,62.219,0,40.105,0z M75.425,40.105c0,8.879-3.3,16.996-8.729,23.208l-49.798-49.8
	c6.212-5.428,14.329-8.729,23.208-8.729C59.581,4.785,75.425,20.629,75.425,40.105z M4.785,40.105c0-8.879,3.3-16.997,8.729-23.209
	l49.799,49.8c-6.212,5.429-14.329,8.729-23.208,8.729C20.629,75.425,4.785,59.581,4.785,40.105z"></path></svg>