<svg xmlns="http://www.w3.org/2000/svg" xmlns:xlink="http://www.w3.org/1999/xlink" version="1.1" x="0px" y="0px" viewBox="0 0 100 100" enable-background="new 0 0 100 100" xml:space="preserve"><path d="M58.6,44.8c-0.6-1.1-2-1.5-3.1-0.9l-13.4,6.6c-1.7-0.7-3.6-0.6-5.2,0.4c-2.8,1.7-3.7,5.3-2.1,8.1c1.7,2.8,5.3,3.7,8.1,2.1  c1.7-1,2.6-2.6,2.8-4.4L57.9,48C58.9,47.2,59.2,45.9,58.6,44.8z M42.4,56.5c-0.4,1.4-1.8,2.2-3.2,1.9c-1.4-0.4-2.2-1.8-1.9-3.2  c0.4-1.4,1.8-2.2,3.2-1.9C41.9,53.7,42.7,55.1,42.4,56.5z M47.4,40.2c-0.4-0.7-0.5-1.6,0-2.4c0.7-1.2,2.1-1.6,3.3-0.9  c1.2,0.7,1.6,2.1,0.9,3.3c-0.7,1.2-2.1,1.6-3.3,0.9C47.9,40.9,47.6,40.6,47.4,40.2z M37.7,37.7c-0.2-0.4-0.3-0.8-0.3-1.2  c0-1.3,1.1-2.4,2.4-2.4c1.3,0,2.4,1.1,2.4,2.4c0,1.3-1.1,2.4-2.4,2.4C38.9,38.9,38.1,38.4,37.7,37.7z M40.1,72.9L40.1,72.9  c1.3,0,2.4,1.1,2.4,2.4c0,1.3-1.1,2.4-2.4,2.4c-0.9,0-1.7-0.5-2.1-1.2c-0.2-0.3-0.3-0.8-0.3-1.2C37.7,74,38.7,72.9,40.1,72.9z   M51.8,71.4c0.7,1.1,0.3,2.6-0.9,3.3c-1.1,0.7-2.6,0.3-3.3-0.8c0,0,0,0,0,0c-0.7-1.1-0.3-2.6,0.9-3.3C49.7,69.9,51.2,70.2,51.8,71.4  z M54.7,66.7c-0.4-0.7-0.5-1.6,0-2.4c0.7-1.2,2.1-1.6,3.3-0.9c1.2,0.7,1.6,2.1,0.9,3.3c-0.7,1.2-2.1,1.6-3.3,0.9  C55.2,67.3,54.9,67,54.7,66.7z M20.4,53.7c1.3,0,2.4,1.1,2.4,2.4c0,1.3-1.1,2.4-2.4,2.4c-0.9,0-1.7-0.5-2.1-1.2  c-0.2-0.3-0.3-0.8-0.3-1.2C18,54.8,19.1,53.7,20.4,53.7z M21.1,67c-0.7-1.2-0.3-2.6,0.9-3.3c1.1-0.7,2.6-0.3,3.3,0.8  c0.7,1.1,0.3,2.6-0.8,3.3C23.3,68.5,21.8,68.2,21.1,67C21.1,67,21.1,67,21.1,67z M59.3,58.1c-0.9,0-1.7-0.5-2.1-1.2  c-0.2-0.4-0.3-0.8-0.3-1.2c0-1.3,1.1-2.4,2.4-2.4c1.3,0,2.4,1.1,2.4,2.4C61.7,57,60.7,58.1,59.3,58.1z M20.9,47.6  c-0.4-0.7-0.5-1.6,0-2.4c0.7-1.2,2.1-1.6,3.3-0.9c1.2,0.7,1.6,2.1,0.9,3.3l0,0c-0.7,1.2-2.1,1.6-3.3,0.9  C21.4,48.3,21.1,48,20.9,47.6z M27.9,40.4L27.9,40.4c-0.7-1.2-0.3-2.6,0.8-3.3c0,0,0,0,0,0c0,0,0,0,0,0c1.2-0.7,2.6-0.3,3.3,0.9  c0.7,1.1,0.3,2.6-0.8,3.3c0,0,0,0,0,0c0,0,0,0,0,0c0,0,0,0,0,0C30.1,41.9,28.6,41.6,27.9,40.4z M28.3,74c-0.4-0.7-0.5-1.6,0-2.4  c0.7-1.2,2.1-1.6,3.3-0.9c1.2,0.7,1.6,2.1,0.9,3.3c-0.7,1.2-2.1,1.6-3.3,0.9C28.8,74.7,28.5,74.4,28.3,74z M2.2,29.2  c-2.2-2.2-2.2-5.9,0-8.1L5,18.2c2.2-2.2,5.9-2.2,8.1,0l2.1,2.1l-2.4,2.4l2.7,2.7c1.4-1.1,3-2.2,4.6-3.2c4.9-2.9,10.2-4.6,15.6-5.1  v-3.4H34c-1,0-1.9-0.8-1.9-1.9V6.9c0-1,0.8-1.9,1.9-1.9h11.7c1,0,1.9,0.8,1.9,1.9v4.9c0,1-0.8,1.9-1.9,1.9h-1.4v3.4  c7.2,0.8,14.1,3.7,19.9,8.3l2.7-2.7l-2.4-2.4l2.1-2.1c2.2-2.2,5.9-2.2,8.1,0l2.9,2.9c2.2,2.2,2.2,5.9,0,8.1l-2.1,2.1L73,28.9  l-2.7,2.7c1.1,1.4,2.2,3,3.2,4.6c2.4,4,3.9,8.3,4.7,12.6H78c-2.9,0-5.3,2.4-5.3,5.3c-0.3,0.1-0.6,0.3-1,0.4c-0.6-0.6-1.2-1-2-1.2  c-0.4-4.3-1.7-8.5-4-12.4C57.3,26.4,38.9,21.6,24.6,30C10.3,38.4,5.6,56.8,13.9,71.1C22.3,85.4,40.8,90.2,55,81.8  C56.4,81,57.8,80,59,79c0.7,0.3,1.5,0.5,2.3,0.5c0.1,0.3,0.3,0.6,0.4,1c-1,1-1.5,2.3-1.5,3.7c0,1.4,0.6,2.8,1.6,3.8l0.2,0.2  c-0.7,0.5-1.5,1-2.2,1.4C41,100.5,17,94.3,6.1,75.7c-8.4-14.3-6.6-31.9,3.2-44.2l-2.7-2.7l-2.4,2.4L2.2,29.2z M61.3,75.5h3  c0.4,2.1,1.2,4,2.4,5.7l-2.1,2.1c-0.5,0.5-0.5,1.3,0,1.8l2.5,2.5c0.5,0.5,1.3,0.5,1.8,0l2.1-2.1c1.7,1.1,3.6,2,5.7,2.4v3  c0,0.7,0.6,1.3,1.3,1.3h3.6c0.7,0,1.3-0.6,1.3-1.3v-3c2.1-0.4,4-1.2,5.7-2.4l2.1,2.1c0.5,0.5,1.3,0.5,1.8,0l2.5-2.5  c0.5-0.5,0.5-1.3,0-1.8l-2.1-2.1c1.1-1.7,2-3.6,2.4-5.7h3c0.7,0,1.3-0.6,1.3-1.3v-3.6c0-0.7-0.6-1.3-1.3-1.3h-3  c-0.4-2.1-1.2-4-2.4-5.7l2.1-2.1c0.5-0.5,0.5-1.3,0-1.8l-2.5-2.5c-0.5-0.5-1.3-0.5-1.8,0l-2.1,2.1c-1.7-1.1-3.6-2-5.7-2.4v-3  c0-0.7-0.6-1.3-1.3-1.3H78c-0.7,0-1.3,0.6-1.3,1.3v3c-2.1,0.4-4,1.2-5.7,2.4l-2.1-2.1c-0.5-0.5-1.3-0.5-1.8,0l-2.5,2.5  c-0.5,0.5-0.5,1.3,0,1.8l2.1,2.1c-1.1,1.7-2,3.6-2.4,5.7h-3c-0.7,0-1.3,0.6-1.3,1.3v3.6C60,75,60.6,75.5,61.3,75.5z M75.6,70.4  l2.5,2.5l5.9-5.8l2.5,2.6l-5.9,5.8L78,77.9l-2.5-2.6l-2.5-2.5L75.6,70.4z"></path></svg>